<?xml version="1.0" encoding="utf-8"?>
<!-- Generator: Adobe Illustrator 26.3.1, SVG Export Plug-In . SVG Version: 6.00 Build 0)  -->
<svg version="1.1" id="Layer_1" xmlns="http://www.w3.org/2000/svg" xmlns:xlink="http://www.w3.org/1999/xlink" x="0px" y="0px"
	 viewBox="0 0 100 100" style="enable-background:new 0 0 100 100;" xml:space="preserve">
<style type="text/css">
	.st0{fill:#FFFFFF;}
</style>
<path class="st0" d="M10.3,19.4c-0.1,0.2-0.1,0.5-0.3,0.6c-0.1-0.4-0.3-0.9-0.5-1.3c-3-8.3-0.7-5.2-9.5-8.7c10.1-4,6.1-0.7,10-10
	c0.1,0.4,0.3,0.9,0.5,1.3c3,8.3,0.8,5.2,9.5,8.7C11,13.6,13.5,10.5,10.3,19.4z"/>
<path class="st0" d="M90.3,19.4c-0.1,0.2-0.1,0.5-0.3,0.6c-0.1-0.4-0.3-0.9-0.5-1.3c-3-8.3-0.7-5.2-9.5-8.7c10.1-4,6.1-0.7,10-10
	c0.1,0.4,0.3,0.9,0.5,1.3c3,8.3,0.8,5.2,9.5,8.7C91,13.6,93.5,10.5,90.3,19.4z"/>
<path class="st0" d="M90.3,99.4c-0.1,0.2-0.1,0.5-0.3,0.6c-0.1-0.4-0.3-0.9-0.5-1.3c-3-8.3-0.7-5.2-9.5-8.7c10.1-4,6.1-0.7,10-10
	c0.1,0.4,0.3,0.9,0.5,1.3c3,8.3,0.8,5.2,9.5,8.7C91,93.6,93.5,90.5,90.3,99.4z"/>
<path class="st0" d="M10.3,99.4c-0.1,0.2-0.1,0.5-0.3,0.6c-0.1-0.4-0.3-0.9-0.5-1.3c-3-8.3-0.7-5.2-9.5-8.7c10.1-4,6.1-0.7,10-10
	c0.1,0.4,0.3,0.9,0.5,1.3c3,8.3,0.8,5.2,9.5,8.7C11,93.6,13.5,90.5,10.3,99.4z"/>
<path class="st0" d="M10.3,59.4c-0.1,0.2-0.1,0.5-0.3,0.6c-0.1-0.4-0.3-0.9-0.5-1.3c-3-8.3-0.7-5.2-9.5-8.7c10.1-4,6.1-0.7,10-10
	c0.1,0.4,0.3,0.9,0.5,1.3c3,8.3,0.8,5.2,9.5,8.7C11,53.6,13.5,50.5,10.3,59.4z"/>
<path class="st0" d="M50.3,19.4c-0.1,0.2-0.1,0.5-0.3,0.6c-0.1-0.4-0.3-0.9-0.5-1.3c-3-8.3-0.7-5.2-9.5-8.7c10.1-4,6.1-0.7,10-10
	c0.1,0.4,0.3,0.9,0.5,1.3c3,8.3,0.8,5.2,9.5,8.7C51,13.6,53.5,10.5,50.3,19.4z"/>
<path class="st0" d="M90.3,59.4c-0.1,0.2-0.1,0.5-0.3,0.6c-0.1-0.4-0.3-0.9-0.5-1.3c-3-8.3-0.7-5.2-9.5-8.7c10.1-4,6.1-0.7,10-10
	c0.1,0.4,0.3,0.9,0.5,1.3c3,8.3,0.8,5.2,9.5,8.7C91,53.6,93.5,50.5,90.3,59.4z"/>
<path class="st0" d="M50.3,99.4c-0.1,0.2-0.1,0.5-0.3,0.6c-0.1-0.4-0.3-0.9-0.5-1.3c-3-8.3-0.7-5.2-9.5-8.7c10.1-4,6.1-0.7,10-10
	c0.1,0.4,0.3,0.9,0.5,1.3c3,8.3,0.8,5.2,9.5,8.7C51,93.6,53.5,90.5,50.3,99.4z"/>
</svg>
